<svg xmlns="http://www.w3.org/2000/svg" viewBox="0 0 1600 448.45"><defs><style>.cls-1{fill:#fff;}</style></defs><title>kanopy logo white</title><g id="Layer_2" data-name="Layer 2"><g id="Layer_1-2" data-name="Layer 1"><path class="cls-1" d="M85.22,238.68,144,178.88c5.49-6,12-11,12-18.43C156,150,145,149,134.54,149h-8.46V127.06H240.67V149c-29.39,2-47.83,15.94-71.25,39.36L141,216.26,205.3,299c13.95,17.94,27.9,31.89,51.32,33.39v21.92H141V332.36h4.48c4.49,0,17.44,0,17.44-11.47,0-6-8-15.44-10.46-18.93l-45.34-56.31L82.22,271.57v44.84c0,15.45,5.48,15.95,16.94,15.95h9v21.92H0V332.36H21.93c10,0,17.43,0,17.43-15.45V40.36c0-9.47-6-11-22.42-11H0V7L82.22,0V238.68Z"/><path class="cls-1" d="M522.64,336.84c-19.92,17.44-29.39,24.41-49.83,24.41-29.89,0-37.86-22.92-39.36-38.86h-3c-17.94,25.91-46.34,38.86-80.23,38.86C294.43,361.25,282,328.37,282,303c0-22.43,12-69.27,148-93.18V190.34c0-6-.5-48.33-53.33-48.33-18.43,0-42.84,8.47-42.84,20.43,0,5.48,5,6.47,10.47,11,6,5.48,9,9,9,16.44,0,15.45-11.45,25.42-24.9,25.42-14.46,0-29.91-10-29.91-27.41,0-27.9,23.92-67.76,85.22-67.76,83.21,0,89.18,54.81,89.18,82.21V314.42c0,10,.5,24.91,16.95,24.91,9.46,0,14-3.48,23.41-12.95ZM430,230.7c-43.36,8-96.17,22.92-96.17,64.28,0,20.43,10,44.35,36.37,44.35,26.91,0,59.8-25.41,59.8-71.25Z"/><path class="cls-1" d="M546,127.06l82.22-7V141l-2.49,25.41h2.49c13.95-27.91,39.86-46.34,77.23-46.34,63.78,0,66.76,59.79,66.76,79.72v117.1c0,15.45,7.49,15.45,17.45,15.45H811.6v21.92H698.49V332.36h13.45c10,0,17.44,0,17.44-15.45V200.8C729.38,149,705,142,689,142c-51.83,0-60.79,76.74-60.79,90.19v84.71c0,15.45,7.48,15.45,17.43,15.45h14v21.92H546V332.36h21.92c10,0,17.44,0,17.44-15.45V165.43c0-15.45-5-16.44-22.42-16.44H546Z"/><path class="cls-1" d="M942.63,361.25c-71.75,0-114.1-60.78-114.1-120.58s42.35-120.58,114.1-120.58,114.11,60.79,114.11,120.58S1014.38,361.25,942.63,361.25Zm0-21.92c31.89,0,62.3-20.93,62.3-98.66,0-82.72-34.39-98.66-62.3-98.66S880.35,158,880.35,240.67C880.35,318.4,910.74,339.33,942.63,339.33Z"/><path class="cls-1" d="M1155.65,120.09v34.38c22.92-29.9,47.83-34.38,64.27-34.38,73.74,0,106.13,63.28,106.13,124.57,0,58.3-39.86,116.59-106.13,116.59-16.94,0-43.85-3-63.79-36.37h-4l3.49,20.93V406.1c0,15.45,7.47,15.45,17.43,15.45H1201v21.92H1073.43V421.55h21.92c10,0,17.44,0,17.44-15.45V164.44c0-15.45-7.47-15.45-17.44-15.45h-21.42V127.06Zm59.29,219.24c21.92,0,59.3-13.95,59.3-97.66,0-86.21-34.89-99.66-59.3-99.66-25.42,0-59.29,17.44-59.29,100.15C1155.65,309.93,1184.54,339.33,1214.94,339.33Z"/><path class="cls-1" d="M1338.9,127.06H1452V149h-14.45c-15.46,0-16.45,7.47-16.45,11.46,0,6,2,9,4.48,14.45l57.81,133h3l48.83-121.08c4.49-10.47,5-16.45,5-20.93,0-15.45-16.44-16.94-25.91-16.94h-12V127.06H1600V149h-4.48c-15.44,0-22.42,9.46-28.41,23.42l-95.67,223.23c-18.93,43.85-42.34,52.81-67.26,52.81-31.89,0-43.36-23.91-43.36-37.86,0-17.45,13-28.41,27.41-28.41,13.45,0,24.92,10,24.92,23.92,0,8-4,10-4,15.45,0,2,0,6,8.47,6,16.94,0,28.9-26.41,32.39-34.39l13.45-31.89-86.7-191.84c-7.47-16.44-13-20.42-29.4-20.42h-8.47Z"/></g></g></svg>