<?xml version="1.0" encoding="UTF-8"?>
<svg width="70px" height="20px" viewBox="0 0 100 29" version="1.1" xmlns="http://www.w3.org/2000/svg" xmlns:xlink="http://www.w3.org/1999/xlink">
    <!-- Generator: Sketch 41.2 (35397) - http://www.bohemiancoding.com/sketch -->
    <title>VUDU_Small Logo Copy</title>
    <desc>Created with Sketch.</desc>
    <defs></defs>
    <g id="Nav-Desktop/Tablet/Mobile" stroke="none" stroke-width="1" fill="none" fill-rule="evenodd">
        <g id="Desktop_1024_more_genres" transform="translate(-40.000000, -17.000000)" fill="#FFFFFF">
            <g id="VUDU_Small-Logo-Copy" transform="translate(40.000000, 17.000000)">
                <path d="M25.3716114,0.0482069158 L21.0510833,0.0482069158 L21.0510833,0.0482069158 L21.0510833,0.0482069158 L21.0510833,0.0482069158 C20.3156743,0.0482069158 19.6721914,0.576138873 19.396413,1.24805227 C19.35045,1.29604609 19.35045,1.3440399 19.35045,1.39203372 C17.6957797,6.33539659 16.2709247,10.5108584 14.6162544,15.4542213 C14.2025868,16.7500543 13.7429562,18.0458873 13.3292886,19.3417203 C13.2833255,19.4377079 13.1913994,19.5816893 13.0994733,19.6296832 C12.915621,19.677677 12.915621,19.4857017 12.8696579,19.3417203 C11.8584705,16.2701162 10.8013201,13.198512 9.79013265,10.1269079 C8.73298218,6.95931618 7.85968396,4.3676502 6.80253348,1.20005846 C6.80253348,1.15206465 6.75657042,1.15206465 6.75657042,1.10407083 C6.48079204,0.480151245 5.83730914,0.0482069158 5.14786318,0.0482069158 L5.10190011,0.0482069158 L0.735409025,0.0482069158 C0.183852256,0.0482069158 -0.0919261282,0.480151245 0.0919261282,1.0080832 C2.61989465,8.44712442 5.19382624,15.8381718 7.72179477,23.277213 C7.90564702,23.8531388 8.08949928,24.333077 8.22738847,24.8130151 C9.19261282,27.164712 10.6634309,28.4125512 13.2833255,28.5565326 L13.8808454,28.5565326 C14.7081805,28.5085388 15.6734049,28.4125512 16.7765184,28.1725821 L18.5690779,22.7972749 C21.0970464,15.5502089 23.5330888,8.44712442 26.1070204,1.10407083 C26.1529835,1.0080832 26.1529835,0.912095574 26.1989465,0.864101759 C26.1529835,0.384163616 25.831242,0.0482069158 25.3716114,0.0482069158" id="Shape"></path>
                <path d="M49.8239615,2.0162503 L49.8239615,1.96825439 C49.8239615,0.960340244 49.0885524,0.192405655 48.1692912,0.0964138316 L43.6189478,0.0964138316 L43.6189478,2.73618898 L43.6189478,17.0389707 C43.6189478,17.5189298 43.5729847,18.0468848 43.4810586,18.526844 C43.067391,20.3506886 41.9642775,21.6465782 40.2176811,22.1745333 C38.4710846,22.7504842 36.8164143,22.4145128 35.4375224,21.1186232 C34.3803719,20.1107091 33.8747782,18.8628154 33.8747782,17.422938 L33.8747782,2.8321808 L33.8747782,0.144409743 L29.3244349,0.144409743 C28.4051736,0.240401567 27.6697646,1.00833616 27.6697646,2.0162503 L27.6697646,2.06424622 L27.6697646,2.92817263 L27.6697646,17.6149216 C27.6697646,18.4308521 27.7616907,19.2467826 27.945543,20.0627131 C29.2325088,25.9182144 34.7940395,29.8058832 40.7232748,28.7019773 C43.5270217,28.1740222 45.7792118,26.7341449 47.5258083,24.3823452 C48.9506632,22.4625087 49.7320353,20.2546968 49.7779984,17.8069053 L49.7779984,9.59960437 L49.7779984,9.59960437 C49.7779984,7.24780469 49.8239615,4.36804998 49.8239615,2.0162503 L49.8239615,2.0162503 L49.8239615,2.0162503 Z" id="Shape"></path>
                <path d="M99.1882923,2.0162503 L99.1882923,1.96825439 C99.1882923,0.960340244 98.4528833,0.192405655 97.533622,0.0964138316 L92.9832786,0.0964138316 L92.9832786,2.73618898 L92.9832786,17.0389707 C92.9832786,17.5189298 92.9373156,18.0468848 92.8453894,18.526844 C92.4317219,20.3506886 91.3286083,21.6465782 89.5820119,22.1745333 C87.8354155,22.7504842 86.1807452,22.4145128 84.8018532,21.1186232 C83.7447028,20.1107091 83.2391091,18.8628154 83.2391091,17.422938 L83.2391091,2.8321808 L83.2391091,0.144409743 L78.6887657,0.144409743 C77.7695044,0.240401567 77.0340954,1.00833616 77.0340954,2.0162503 L77.0340954,2.06424622 L77.0340954,2.92817263 L77.0340954,17.6149216 C77.0340954,18.4308521 77.1260215,19.2467826 77.3098738,20.0627131 C78.5968396,25.9182144 84.1583703,29.8058832 90.0876056,28.7019773 C92.8913525,28.1740222 95.1435426,26.7341449 96.8901391,24.3823452 C98.3149941,22.4625087 99.0963662,20.2546968 99.1423292,17.8069053 L99.1423292,9.59960437 L99.1423292,9.59960437 C99.1882923,7.24780469 99.1882923,4.36804998 99.1882923,2.0162503 L99.1882923,2.0162503 L99.1882923,2.0162503 Z" id="Shape"></path>
                <path d="M69.1744114,2.30430999 C67.1979997,1.00849645 64.9917726,0.288600031 62.6476563,0.192613842 C61.5445428,0.144620747 60.4873923,0.144620747 59.3842788,0.144620747 L53.6848588,0.144620747 L53.6388958,0.144620747 C52.6277084,0.144620747 51.8463363,0.960503352 51.8463363,2.01635143 L51.8463363,2.06434452 L51.8463363,2.30430999 L51.8463363,14.3505767 L51.8463363,26.6368088 C51.8463363,26.6368088 51.8463363,26.6368088 51.8463363,26.6848019 C51.8463363,27.74065 52.6277084,28.5565326 53.6388958,28.5565326 L62.2799518,28.5565326 C62.9234347,28.5565326 63.6128807,28.5085395 64.2563636,28.3645602 C66.8762582,27.9326224 69.2203745,26.7807881 71.1508232,24.9090575 C74.8278683,21.3575685 76.2986864,16.9422038 75.4253882,11.8069427 C74.6899791,7.63154347 72.5297151,4.51199234 69.1744114,2.30430999 M67.3358889,19.8697825 C66.0948861,21.4055616 64.4861789,22.2694373 62.5557302,22.5094027 C62.1880257,22.5573958 61.8203212,22.5573958 61.4526167,22.5573958 L58.2352022,22.5573958 C57.8215346,22.5573958 57.8215346,22.5573958 57.8215346,22.1734511 L57.8215346,14.3025836 L57.8215346,6.43171611 C57.8215346,6.04777136 57.8215346,6.04777136 58.1892391,6.04777136 C59.4762049,6.04777136 60.8091338,5.99977826 62.0960996,6.09576445 C64.532142,6.23974373 66.4625907,7.391578 67.8414826,9.45528106 C68.6688177,10.7510946 69.1284484,12.1908874 69.2203745,13.7266665 C69.3123006,16.030335 68.7607439,18.094038 67.3358889,19.8697825" id="Shape"></path>
            </g>
        </g>
    </g>
</svg>